<svg xmlns="http://www.w3.org/2000/svg" viewBox="0 0 1200 900" role="img" aria-labelledby="t d"><title id="t">Controls and machine integration</title><desc id="d">A clean industrial control panel with motion drives, power supplies, controller, labeled wiring, and system connections.</desc><defs><linearGradient id="bg" x1="0" y1="0" x2="1" y2="1"><stop stop-color="#081018"/><stop offset="1" stop-color="#020509"/></linearGradient><linearGradient id="steel" x1="0" y1="0" x2="1" y2="1"><stop stop-color="#7c8c97"/><stop offset=".45" stop-color="#25333d"/><stop offset="1" stop-color="#a6b4bd"/></linearGradient><filter id="glow"><feGaussianBlur stdDeviation="8"/></filter></defs><rect width="1200" height="900" fill="url(#bg)"/><rect x="140" y="95" width="920" height="710" rx="12" fill="#d3d9dd" stroke="#6e7e88" stroke-width="5"/><rect x="175" y="130" width="850" height="640" fill="#bac4ca" stroke="#86959f" stroke-width="2"/><g font-family="Arial,sans-serif" font-weight="700" fill="#111a21"><text x="200" y="175" font-size="22" letter-spacing="3">LASERX DESIGN / MOTION CONTROL PANEL</text></g><g transform="translate(220 215)"><rect x="0" y="0" width="170" height="390" rx="8" fill="#0a1117"/><rect x="18" y="22" width="134" height="72" fill="#13222d" stroke="#49b9f2"/><text x="34" y="66" fill="#d9edf7" font-family="Arial" font-size="22" font-weight="700">POWER</text><g fill="#253541"><circle cx="40" cy="130" r="8"/><circle cx="80" cy="130" r="8"/><circle cx="120" cy="130" r="8"/></g><g stroke="#49b9f2" stroke-width="5"><path d="M36 165h98M36 205h98M36 245h98M36 285h98M36 325h98"/></g></g><g transform="translate(450 210)"><g><rect x="0" y="0" width="185" height="125" rx="8" fill="#101920" stroke="#657985" stroke-width="3"/><rect x="20" y="20" width="145" height="32" fill="#182b35"/><text x="35" y="43" fill="#dceaf2" font-family="Arial" font-size="18" font-weight="700">X AXIS DRIVE</text><g fill="#28d17c"><rect x="18" y="73" width="18" height="34"/><rect x="50" y="73" width="18" height="34"/><rect x="82" y="73" width="18" height="34"/><rect x="114" y="73" width="18" height="34"/></g></g><g transform="translate(0 150)"><rect x="0" y="0" width="185" height="125" rx="8" fill="#101920" stroke="#657985" stroke-width="3"/><rect x="20" y="20" width="145" height="32" fill="#182b35"/><text x="35" y="43" fill="#dceaf2" font-family="Arial" font-size="18" font-weight="700">Y AXIS DRIVE</text><g fill="#28d17c"><rect x="18" y="73" width="18" height="34"/><rect x="50" y="73" width="18" height="34"/><rect x="82" y="73" width="18" height="34"/><rect x="114" y="73" width="18" height="34"/></g></g><g transform="translate(0 300)"><rect x="0" y="0" width="185" height="125" rx="8" fill="#101920" stroke="#657985" stroke-width="3"/><rect x="20" y="20" width="145" height="32" fill="#182b35"/><text x="35" y="43" fill="#dceaf2" font-family="Arial" font-size="18" font-weight="700">Z AXIS DRIVE</text><g fill="#28d17c"><rect x="18" y="73" width="18" height="34"/><rect x="50" y="73" width="18" height="34"/><rect x="82" y="73" width="18" height="34"/><rect x="114" y="73" width="18" height="34"/></g></g></g><g transform="translate(720 235)"><rect x="0" y="0" width="230" height="170" rx="10" fill="#e9eef0" stroke="#436275" stroke-width="4"/><text x="28" y="46" fill="#11202a" font-family="Arial" font-size="24" font-weight="700">MOTION CONTROLLER</text><g fill="#34bf71"><rect x="22" y="85" width="26" height="55"/><rect x="60" y="85" width="26" height="55"/><rect x="98" y="85" width="26" height="55"/><rect x="136" y="85" width="26" height="55"/><rect x="174" y="85" width="26" height="55"/></g></g><g fill="none" stroke-linecap="round" stroke-width="5"><path d="M390 295C430 295 418 255 450 255" stroke="#e23f78"/><path d="M390 345C430 345 418 405 450 405" stroke="#e23f78"/><path d="M390 395C430 395 418 555 450 555" stroke="#e23f78"/><path d="M635 270C690 270 675 315 720 315" stroke="#49b9f2"/><path d="M635 420C690 420 675 345 720 345" stroke="#49b9f2"/><path d="M635 570C690 570 675 375 720 375" stroke="#49b9f2"/></g><g fill="#49b9f2" opacity=".18" filter="url(#glow)"><circle cx="835" cy="320" r="95"/></g><g font-family="Arial,sans-serif"><text x="170" y="850" fill="#49b9f2" font-size="24" font-weight="700" letter-spacing="4">CONTROLS · WIRING · MOTION · INTEGRATION</text></g></svg>