<svg xmlns="http://www.w3.org/2000/svg" viewBox="0 0 1200 900" role="img" aria-labelledby="t d"><title id="t">Production fixture system</title><desc id="d">A CAD-inspired production fixture on a perforated tooling table.</desc><defs><linearGradient id="bg" x1="0" y1="0" x2="1" y2="1"><stop stop-color="#0a1219"/><stop offset="1" stop-color="#05090d"/></linearGradient><linearGradient id="plate" x1="0" y1="0" x2="1" y2="1"><stop stop-color="#657684"/><stop offset=".5" stop-color="#293640"/><stop offset="1" stop-color="#8798a4"/></linearGradient><linearGradient id="beam" x1="0" y1="0" x2="1" y2="1"><stop stop-color="#a7b5bf"/><stop offset=".35" stop-color="#4f606c"/><stop offset="1" stop-color="#17232d"/></linearGradient><pattern id="holes" width="58" height="58" patternUnits="userSpaceOnUse"><circle cx="29" cy="29" r="7" fill="#071019" stroke="#9ab0be" stroke-opacity=".32"/></pattern><filter id="glow"><feGaussianBlur stdDeviation="10"/></filter></defs><rect width="1200" height="900" fill="url(#bg)"/><ellipse cx="585" cy="730" rx="500" ry="90" fill="#49b9f2" opacity=".08" filter="url(#glow)"/><g transform="translate(120 130)"><polygon points="40,170 900,80 1050,220 165,330" fill="url(#plate)" stroke="#8ba0ad" stroke-width="4"/><polygon points="40,170 900,80 1050,220 165,330" fill="url(#holes)" opacity=".85"/><g fill="url(#beam)" stroke="#bdc9d1" stroke-width="2"><polygon points="145,160 785,95 805,120 165,188"/><polygon points="190,205 830,140 850,165 210,233"/><polygon points="235,250 875,185 895,210 255,278"/><polygon points="280,295 920,230 940,255 300,323"/></g><g fill="#14212b" stroke="#65c8f6" stroke-width="3"><path d="M120 135l32-7 18 36 -40 8z"/><path d="M205 126l32-7 18 36 -40 8z"/><path d="M290 117l32-7 18 36 -40 8z"/><path d="M375 108l32-7 18 36 -40 8z"/><path d="M460 99l32-7 18 36 -40 8z"/><path d="M545 90l32-7 18 36 -40 8z"/><path d="M630 81l32-7 18 36 -40 8z"/><path d="M715 72l32-7 18 36 -40 8z"/></g><g fill="#0e1921" stroke="#c0ccd3" stroke-width="3"><path d="M210 180l28-4 0 55 -28 4z"/><path d="M300 171l28-4 0 55 -28 4z"/><path d="M390 162l28-4 0 55 -28 4z"/><path d="M480 153l28-4 0 55 -28 4z"/><path d="M570 144l28-4 0 55 -28 4z"/><path d="M660 135l28-4 0 55 -28 4z"/><path d="M750 126l28-4 0 55 -28 4z"/></g><g stroke="#49b9f2" stroke-width="3" opacity=".75"><path d="M115 390H980"/><path d="M115 420H800"/><path d="M115 450H900"/></g><g fill="#49b9f2"><circle cx="115" cy="390" r="5"/><circle cx="115" cy="420" r="5"/><circle cx="115" cy="450" r="5"/></g></g><g font-family="Arial,sans-serif"><text x="90" y="90" fill="#49b9f2" font-size="26" font-weight="700" letter-spacing="4">PRODUCTION FIXTURE ENGINEERING</text><text x="90" y="820" fill="#91a5b4" font-size="20" letter-spacing="2">REPEATABILITY · ACCESS · DIMENSIONAL CONTROL · FLOW</text></g></svg>